<svg xmlns="http://www.w3.org/2000/svg" width="1792" height="1792" id="bank">
  <path d="m896 78.526 896 358.4v119.466h-119.467q0 24.267-19.133 42-19.133 17.734-45.267 17.734H183.867q-26.134 0-45.267-17.734-19.133-17.733-19.133-42H0V436.926ZM238.933 675.859h238.934v716.8h119.466v-716.8h238.934v716.8h119.466v-716.8h238.934v716.8h119.466v-716.8h238.934v716.8h55.066q26.134 0 45.267 17.733 19.133 17.734 19.133 42v59.734H119.467v-59.734q0-24.266 19.133-42 19.133-17.733 45.267-17.733h55.066v-716.8zm1488.667 896q26.133 0 45.267 17.733 19.133 17.734 19.133 42v119.467H0v-119.467q0-24.266 19.133-42 19.134-17.733 45.267-17.733h1663.2z"></path>
</svg>
